<svg xmlns="http://www.w3.org/2000/svg" width="63.938" height="60" viewBox="0 0 63.938 60">
  <g id="Group_40" data-name="Group 40" transform="translate(-411.893 -916.466)">
    <g id="Group_37" data-name="Group 37" transform="translate(411.893 916.466)">
      <g id="Group_36" data-name="Group 36">
        <g id="Group_35" data-name="Group 35">
          <path id="Path_5" data-name="Path 5" d="M411.893,931.481a31.063,31.063,0,0,1,3.47-5.557c1.792-2.368,3.219-2.508,3.219-.072a7.785,7.785,0,0,1-1.155,3.687c1.083-.673,1.777-.245,1.777,1.462,0,2.611-1.606,5.418-3.766,8.253a31.143,31.143,0,0,0-3.545,5.656Zm3.364-.2a5.035,5.035,0,0,0,1.265-3.051c0-1.094-.488-.909-1.31.2-.693.929-1.024,1.413-1.656,2.419v2.916C414.2,932.731,414.545,932.235,415.257,931.283Zm0,5.908c1.214-1.619,1.761-2.822,1.761-3.972s-.547-1.254-1.761.366c-.712.952-1.053,1.448-1.7,2.48v3.607C414.2,938.64,414.545,938.144,415.257,937.191Z" transform="translate(-411.893 -911.896)" fill="#0f0f0f"/>
          <path id="Path_6" data-name="Path 6" d="M421.326,920.6a28.961,28.961,0,0,1,2.609-1.531c1.942,4.345,2.95,6.6,5.005,11.255a30.149,30.149,0,0,0-2.991,1.188l-1.065-2.663a29.225,29.225,0,0,0-4.455,2.614c-.393,1.537-.589,2.31-.974,3.863a29.016,29.016,0,0,0-2.571,2.105C418.569,930.541,419.464,927.176,421.326,920.6Zm2.793,6.335c-.608-1.547-.909-2.313-1.5-3.83-.6,2.212-.888,3.327-1.468,5.572A29.378,29.378,0,0,1,424.119,926.936Z" transform="translate(-408.9 -914.904)" fill="#0f0f0f"/>
          <path id="Path_7" data-name="Path 7" d="M424.82,924.957a8.462,8.462,0,0,1,7.386-8.442c3.446-.368,5.85,1.333,6.6,3.958-1.064.152-1.6.248-2.664.477a3.471,3.471,0,0,0-3.935-2.133,5.035,5.035,0,0,0-4.476,5.327c0,3.108,2.027,4.066,4.476,3.806a4.349,4.349,0,0,0,3.935-2.55c1.065.232,1.6.366,2.664.675-.749,2.516-3.153,3.809-6.6,4.177C428.237,930.676,424.82,929.447,424.82,924.957Z" transform="translate(-404.141 -916.466)" fill="#0f0f0f"/>
          <path id="Path_8" data-name="Path 8" d="M435.267,916.714c1.174.176,1.758.286,2.916.558v4.988a56.777,56.777,0,0,1,5.22-3.342,29.358,29.358,0,0,1,3.35,1.553,51.256,51.256,0,0,0-6.031,3.5,111.252,111.252,0,0,1,6.44,10.153,29.552,29.552,0,0,0-3.439-1.643c-2.163-3.457-3.279-5.093-5.54-8.185V930.7c-1.158-.27-1.742-.382-2.916-.557Z" transform="translate(-397.876 -916.317)" fill="#0f0f0f"/>
        </g>
        <path id="Path_9" data-name="Path 9" d="M443.3,925.108c-.371-.566-.371-1.136,0-1.27A26.686,26.686,0,0,1,450.407,922c.315-.04.814.48,1.113,1.158a96.623,96.623,0,0,1,5.474,15.122c.224.782.224,1.352,0,1.272s-.318-.106-.539-.167c-.237-.066-.635-.745-.88-1.505-1.214-3.756-1.884-5.564-3.321-9.037v10.776c0,.5-.334.509-.763.043-.413-.45-.622-.669-1.051-1.094a2.826,2.826,0,0,1-.811-1.685V926.1a27.217,27.217,0,0,0-4.148,1.2c-.352.126-.945-.253-1.313-.841C443.823,925.914,443.65,925.644,443.3,925.108Z" transform="translate(-393.224 -913.15)" fill="#0f0f0f"/>
      </g>
    </g>
    <g id="Group_39" data-name="Group 39" transform="translate(411.893 943.463)">
      <g id="Group_38" data-name="Group 38">
        <path id="Path_10" data-name="Path 10" d="M414.465,939.961a31.3,31.3,0,0,1-2.572-4.316v-2.3a30.242,30.242,0,0,0,7.8,10.32v2.3a29.514,29.514,0,0,1-3.267-3.422v11.128a30.036,30.036,0,0,1-1.961-2.58Z" transform="translate(-411.893 -933.342)" fill="#0f0f0f"/>
        <path id="Path_11" data-name="Path 11" d="M417.017,945.624c0-4.663,2.727-4.386,6.327-2.4s7,5.135,7,9.8-3.4,5.922-7,3.938S417.017,950.287,417.017,945.624Zm10.465,6.408a7.411,7.411,0,0,0-4.138-6.509c-2.136-1.176-3.9-1.113-3.9,2.072a8.134,8.134,0,0,0,3.9,7.061C425.479,955.833,427.482,955.215,427.482,952.032Z" transform="translate(-408.82 -928.232)" fill="#0f0f0f"/>
        <path id="Path_12" data-name="Path 12" d="M434.246,948.245a30.688,30.688,0,0,1-4.439-.131v-2.3a30.673,30.673,0,0,0,11.777-.84v2.3a30.441,30.441,0,0,1-4.383.763v11.128c-1.177.131-1.769.174-2.955.21Z" transform="translate(-401.15 -926.369)" fill="#0f0f0f"/>
        <path id="Path_13" data-name="Path 13" d="M437.479,953.087c0-4.663,3.433-7.671,7.1-9.485s6.487-1.948,6.487,2.715a12.688,12.688,0,0,1-6.487,11.022C440.912,959.153,437.479,957.748,437.479,953.087Zm11.087-4.924c0-3.185-1.808-3.337-3.985-2.259a6.988,6.988,0,0,0-4.206,6.32c0,3.185,2.028,3.889,4.206,2.812A7.681,7.681,0,0,0,448.566,948.163Z" transform="translate(-396.549 -927.892)" fill="#0f0f0f"/>
        <path id="Path_14" data-name="Path 14" d="M447.389,942.144a29.731,29.731,0,0,0,4.233-4.9c2.166-3.023,2.921-3.065,2.921-.725a16.018,16.018,0,0,1-2.921,8.9,30.072,30.072,0,0,1-2.06,2.611v5.257a29.245,29.245,0,0,1-2.172,2.289Zm4.159,1.072a6.5,6.5,0,0,0,1.3-3.714c0-1.229-.466-1.013-1.3.147a29.7,29.7,0,0,1-1.987,2.508v3.567A29.472,29.472,0,0,0,451.548,943.215Z" transform="translate(-390.606 -932.432)" fill="#0f0f0f"/>
      </g>
    </g>
  </g>
</svg>
