<svg xmlns="http://www.w3.org/2000/svg" xmlns:xlink="http://www.w3.org/1999/xlink" width="48" height="46.545" viewBox="0 0 48 46.545"><defs><clipPath id="a"><path d="M10.929-18.1H25.8v-1.842H10.929Zm1.859-2.764H23.939v-9.212H12.788ZM11.859-31v10.133H10v3.685H26.727v-3.685H24.869V-31Z" transform="translate(-10 31)" fill="#0c3df5" clip-rule="evenodd"/></clipPath><clipPath id="b"><path d="M-224,624.546H823.273V-1310H-224Z" transform="translate(224 1310)" fill="#0c3df5"/></clipPath><clipPath id="c"><path d="M41-14.364h.727V-18H41Z" transform="translate(-41 18)" fill="#0c3df5"/></clipPath><clipPath id="d"><path d="M27.692-18.385H38.769v-20.48H27.692ZM5.538-44.777A2.761,2.761,0,0,0,7.846-43.52a2.761,2.761,0,0,0,2.308-1.257,2.761,2.761,0,0,0,2.308,1.257,2.761,2.761,0,0,0,2.308-1.257,2.761,2.761,0,0,0,2.308,1.257,2.761,2.761,0,0,0,2.308-1.257,2.761,2.761,0,0,0,2.308,1.257A2.761,2.761,0,0,0,24-44.777a2.76,2.76,0,0,0,2.308,1.257,2.76,2.76,0,0,0,2.308-1.257,2.76,2.76,0,0,0,2.308,1.257,2.76,2.76,0,0,0,2.308-1.257,2.76,2.76,0,0,0,2.308,1.257,2.76,2.76,0,0,0,2.308-1.257,2.76,2.76,0,0,0,2.308,1.257,2.76,2.76,0,0,0,2.308-1.257,2.763,2.763,0,0,0,1.846,1.209v25.182H39.692V-39.8H26.769v21.411H3.692V-43.567a2.763,2.763,0,0,0,1.846-1.209Zm37.385-3.4h3.692v1.862a1.84,1.84,0,0,1-1.846,1.862,1.84,1.84,0,0,1-1.846-1.862Zm-4.615,0H42v1.862a1.84,1.84,0,0,1-1.846,1.862,1.84,1.84,0,0,1-1.846-1.862Zm-4.615,0h3.692v1.862a1.84,1.84,0,0,1-1.846,1.862,1.84,1.84,0,0,1-1.846-1.862Zm-4.615,0h3.692v1.862a1.84,1.84,0,0,1-1.846,1.862,1.84,1.84,0,0,1-1.846-1.862Zm-4.615,0h3.692v1.862a1.84,1.84,0,0,1-1.846,1.862,1.84,1.84,0,0,1-1.846-1.862Zm-4.615,0h3.692v1.862a1.839,1.839,0,0,1-1.846,1.862,1.839,1.839,0,0,1-1.846-1.862Zm-4.615,0h3.692v1.862a1.839,1.839,0,0,1-1.846,1.862,1.839,1.839,0,0,1-1.846-1.862Zm-4.615,0h3.692v1.862a1.839,1.839,0,0,1-1.846,1.862,1.839,1.839,0,0,1-1.846-1.862ZM6-48.175H9.692v1.862a1.839,1.839,0,0,1-1.846,1.862A1.839,1.839,0,0,1,6-46.313Zm-4.615,0H5.077v1.862a1.839,1.839,0,0,1-1.846,1.862,1.839,1.839,0,0,1-1.846-1.862Zm2.164-6.516h40.9l2.131,5.585H1.417Zm31.529-.931h9.231v-1.862H35.077Zm-31.385,0h9.231v-1.862H3.692Zm10.154,0H34.154v-7.447H13.846ZM12.923-64v5.585H2.769v3.171L.462-49.193v2.88a2.785,2.785,0,0,0,2.308,2.745v25.182H0v.931H48v-.931H45.231V-43.567a2.785,2.785,0,0,0,2.308-2.745v-2.88l-2.308-6.051v-3.171H35.077V-64Z" transform="translate(0 64)" fill="#0c3df5" clip-rule="evenodd"/></clipPath><clipPath id="f"><path d="M11.077-17.687H25.846v-1.862H11.077Zm1.846-2.793H24v-9.309H12.923ZM12-30.72v10.24H10.154v3.724H26.769V-20.48H24.923V-30.72Z" transform="translate(-10.154 30.72)" fill="#0c3df5" clip-rule="evenodd"/></clipPath></defs><g transform="translate(0 64)"><g transform="translate(7.273 -40)" clip-path="url(#a)"><g transform="translate(-170.182 -930.182)" clip-path="url(#b)"><path d="M5-36H29v21.091H5Z" transform="translate(161.545 962.545)" fill="#0c3df5"/></g></g><g transform="translate(29.818 -30.545)" clip-path="url(#c)"><path d="M36-23h8v10.909H36Z" transform="translate(-39.636 19.364)" fill="#0c3df5"/></g><g transform="translate(0 -64)" clip-path="url(#d)"><g transform="translate(-162.909 -906.182)" clip-path="url(#b)"><path d="M-5-69H50.273v53.818H-5Z" transform="translate(164.273 971.545)" fill="#0c3df5"/></g></g><g transform="translate(7.385 -39.796)" clip-path="url(#f)"><g transform="translate(-170.294 -930.385)" clip-path="url(#b)"><path d="M5.154-35.72H29.042v21.236H5.154Z" transform="translate(161.503 962.469)" fill="#0c3df5"/></g></g></g></svg>