<?xml version="1.0" encoding="utf-8"?>
<!-- Generator: Adobe Illustrator 21.1.0, SVG Export Plug-In . SVG Version: 6.00 Build 0)  -->
<svg version="1.1" id="Layer_1" xmlns="http://www.w3.org/2000/svg" xmlns:xlink="http://www.w3.org/1999/xlink" x="0px" y="0px"
	 viewBox="0 0 400 185" style="enable-background:new 0 0 400 185;" xml:space="preserve">
<g id="XMLID_1_">
	<g id="XMLID_2_">
		<path id="XMLID_3_" d="M93.7,51.1L91.8,73c-2.4,27-16.7,41.7-43.2,41.7H36.1l-5.5,63.4H4L18.8,9.4h39C84.3,9.4,96,24.1,93.7,51.1z
			 M43.2,33.5l-5,57.1h12.5c8.4,0,13.4-3.9,14.4-15.9l2.2-25.3c1.1-12-3.2-15.9-11.6-15.9H43.2z"/>
		<path id="XMLID_4_" d="M87.5,123.4l58.2-114h28.9l-10,114h12.5l-2.1,24.1h-12.5l-2.7,30.6h-26l2.7-30.6H85.4L87.5,123.4z
			 M138.6,123.4l5.5-63.4l-32.3,63.4H138.6z"/>
		<path id="XMLID_5_" d="M182.9,123.4l58.2-114H270l-10,114h12.5l-2.1,24.1H258l-2.7,30.6h-26l2.7-30.6h-51.1L182.9,123.4z
			 M234,123.4l5.5-63.4l-32.3,63.4H234z"/>
		<path id="XMLID_6_" d="M314.7,180.1c-26.8,0-40.1-15.4-37.7-42.4l1.2-13.3c1.4-16.1,7.3-28.7,19.5-35.2c-10.6-6-14.9-17.4-13.4-34
			l0.5-5.3c2.4-27,18.4-42.4,45.2-42.4s40.1,15.4,37.7,42.4l-0.5,5.3c-1.5,16.6-8,28-19.4,34c11,6.5,14.7,19,13.3,35.2l-1.2,13.3
			C357.5,164.6,341.4,180.1,314.7,180.1z M316.8,156c8.4,0,15.1-4.1,16.6-19l1.4-15.7c1.2-13.3-3.9-19-13.3-19
			c-9.4,0-15.4,5.8-16.6,19l-1.4,15.7C302.2,151.9,308.3,156,316.8,156z M310.2,60.3c-1.2,13.5,4.7,17.8,13.4,17.8
			c8.4,0,15.3-4.3,16.5-17.8l0.8-9.4c1.3-15.2-4.8-19.3-13.3-19.3c-8.4,0-15.3,4.1-16.6,19.3L310.2,60.3z"/>
	</g>
	<g id="XMLID_7_">
		<path id="XMLID_8_" d="M381.5,161.8h-2.7v-4.4h3c1.1,0,2,0.2,2.5,0.5c0.6,0.4,0.8,0.9,0.8,1.6c0,0.8-0.3,1.4-0.9,1.7
			C383.8,161.6,382.8,161.8,381.5,161.8 M385.9,164.9c-0.4-0.4-0.9-0.8-1.6-1c1.5-0.3,2.6-0.8,3.3-1.5c0.7-0.8,1.1-1.8,1.1-3
			c0-1.3-0.4-2.4-1.3-3.3c-0.9-0.9-2.2-1.3-4.2-1.3h-7.7V171h3.3v-6.7h0.8c1,0,1.8,0.3,2.4,0.9c0.6,0.6,1.3,1.6,2.2,3.2l1.4,2.6h4.1
			l-1.9-3.3C386.9,166.3,386.3,165.4,385.9,164.9"/>
		<path id="XMLID_9_" d="M390.9,171.5c-2.4,2.4-5.3,3.6-8.7,3.6c-3.4,0-6.3-1.2-8.7-3.6c-2.4-2.4-3.6-5.3-3.6-8.7
			c0-3.3,1.2-6.1,3.5-8.6c2.3-2.5,5.4-3.7,9.1-3.7c1.8,0,3.6,0.5,5.5,1.5c1.9,1,3.5,2.4,4.7,4.4c1.2,1.9,1.8,4.1,1.8,6.4
			C394.6,166.2,393.4,169.1,390.9,171.5 M393.1,152.1c-3-3-6.7-4.5-11.3-4.5c-2,0-4.2,0.6-6.6,1.7c-2.4,1.1-4.4,2.9-5.9,5.4
			c-1.6,2.5-2.4,5.2-2.4,8.2c0,4.2,1.5,7.8,4.5,10.8c3,3,6.6,4.5,10.8,4.5c4.2,0,7.8-1.5,10.8-4.5c3-3,4.5-6.6,4.5-10.8
			C397.6,158.7,396.1,155.1,393.1,152.1"/>
	</g>
</g>
</svg>
