<svg xmlns="http://www.w3.org/2000/svg" xmlns:xlink="http://www.w3.org/1999/xlink" width="48" height="36" viewBox="0 0 48 36"><defs><clipPath id="a"><path d="M1.5-13.5h45v-33H1.5ZM47.25-48H.75a.75.75,0,0,0-.75.75v34.5A.75.75,0,0,0,.75-12h46.5a.749.749,0,0,0,.75-.75v-34.5a.75.75,0,0,0-.75-.75Z" transform="translate(0 48)" fill="#d4096b" clip-rule="evenodd"/></clipPath><clipPath id="b"><path d="M-224,1147H856V-848H-224Z" transform="translate(224 848)" fill="#d4096b"/></clipPath><clipPath id="c"><path d="M25.453-29.027c.337,0,1.042,0,20.411-13.822a.588.588,0,0,0,.1-.918.863.863,0,0,0-1.08-.085C38.2-39.079,27.422-31.481,25.445-30.407c-2.015-1.087-13.24-8.672-20.2-13.451a.863.863,0,0,0-1.08.1.589.589,0,0,0,.115.918c20.135,13.815,20.833,13.815,21.17,13.815" transform="translate(-3.997 44.003)" fill="#d4096b" clip-rule="evenodd"/></clipPath><clipPath id="d"><path d="M-224,883.771H879.307V-848H-224Z" transform="translate(224 848)" fill="#d4096b"/></clipPath><clipPath id="e"><path d="M4.652-10.264a.652.652,0,0,0,.475-.208l9.766-10.417a.651.651,0,0,0-.1-.916.652.652,0,0,0-.855.031L4.177-11.357a.651.651,0,0,0,.033.918.654.654,0,0,0,.443.176" transform="translate(-4.003 21.95)" fill="#d4096b" clip-rule="evenodd"/></clipPath><clipPath id="f"><path d="M-224,883.771H713.5V-848H-224Z" transform="translate(224 848)" fill="#d4096b"/></clipPath><clipPath id="g"><path d="M43.219-21.815a.651.651,0,0,0,0,.918L52.984-10.48a.652.652,0,0,0,.443.208.651.651,0,0,0,.442-.176.651.651,0,0,0,0-.918L44.1-21.782a.65.65,0,0,0-.885-.033" transform="translate(-43.029 21.973)" fill="#d4096b" clip-rule="evenodd"/></clipPath></defs><g transform="translate(0 48)"><g transform="translate(0 -48)" clip-path="url(#a)"><g transform="translate(-168 -600)" clip-path="url(#b)"><path d="M-5-53H50.5V-9.5H-5Z" transform="translate(169.25 649.25)" fill="#d4096b"/></g></g><g transform="translate(2.602 -45.398)" clip-path="url(#c)"><g transform="translate(-174.688 -523.436)" clip-path="url(#d)"><path d="M-1-49H48.8v21.486H-1Z" transform="translate(171.86 569.183)" fill="#d4096b"/></g></g><g transform="translate(2.606 -26.29)" clip-path="url(#e)"><g transform="translate(-148.44 -537.793)" clip-path="url(#f)"><path d="M-1-26.95H16.549v18.2H-1Z" transform="translate(146.181 561.488)" fill="#d4096b"/></g></g><g transform="translate(34.347 -26.305)" clip-path="url(#g)"><g transform="translate(-173.847 -537.778)" clip-path="url(#f)"><path d="M38.029-26.973h17.54V-8.761H38.029Z" transform="translate(132.563 561.496)" fill="#d4096b"/></g></g></g></svg>