<svg xmlns="http://www.w3.org/2000/svg" xmlns:xlink="http://www.w3.org/1999/xlink" width="34.462" height="63.883" viewBox="0 0 34.462 63.883"><defs><clipPath id="a"><path d="M32.821-63.179v.821h.821l-.821-.821" fill="#0c3df5" clip-rule="evenodd"/></clipPath><clipPath id="b"><path d="M-239,1605H1201V-1055H-239Z" fill="#0c3df5"/></clipPath><clipPath id="c"><path d="M1.641-.821v-.821H.821l.821.821" fill="#0c3df5" clip-rule="evenodd"/></clipPath><clipPath id="e"><path d="M1.583-63.179l-.762.821h.821a5.213,5.213,0,0,0-.058-.706Z" fill="#0c3df5" clip-rule="evenodd"/></clipPath><clipPath id="g"><path d="M33.669-1.641h-.848c.007.24.013.48.022.72V-.8a.837.837,0,0,0,1.408.59.853.853,0,0,0-.582-1.427" fill="#0c3df5" clip-rule="evenodd"/></clipPath><clipPath id="i"><path d="M0,0H34.361V-63.883H0Z" fill="#0c3df5"/></clipPath><clipPath id="j"><rect width="36" height="65" transform="translate(-1 -64)" fill="#0c3df5"/></clipPath><clipPath id="k"><path d="M34.315-63.046v-.1a.749.749,0,0,0-.74-.734H.786a.749.749,0,0,0-.74.734V-8.426c0,2.525-.1,5.064,0,7.589v.1A.749.749,0,0,0,.786,0h32.79A.677.677,0,0,0,34.1-.217a.752.752,0,0,1-1.26-.517v-.1c-.009-.21-.014-.421-.02-.631H1.525v.734l-.74-.734h.74V-8.25H.771a.734.734,0,0,1,0-1.468h.754V-55.75H.771a.734.734,0,0,1,0-1.468h.754v-3.391c0-.561.071-1.2.056-1.806h-.8l.74-.734v.1a4.309,4.309,0,0,1,.056.631H32.836v-.734l.74.734h-.74v5.2h.725a.734.734,0,0,1,0,1.468h-.725V-9.717h.725a.734.734,0,0,1,0,1.468h-.725c0,2.256-.083,4.524-.019,6.782h.759A.745.745,0,0,1,34.1-.217a.668.668,0,0,0,.219-.517V-55.457c0-2.525.1-5.064,0-7.589" fill="#0c3df5" clip-rule="evenodd"/></clipPath><clipPath id="l"><path d="M0,0H35V-64H0Z" fill="#0c3df5"/></clipPath><clipPath id="m"><path d="M29.521-55.795h3.3v-1.641H1.641v1.641h27.88Z" fill="#0c3df5" clip-rule="evenodd"/></clipPath><clipPath id="o"><path d="M.8-57.436a.821.821,0,0,0,0,1.641h.845v-1.641Z" fill="#0c3df5" clip-rule="evenodd"/></clipPath><clipPath id="q"><path d="M32.821-55.795h.829a.821.821,0,0,0,0-1.641h-.829v1.641Z" fill="#0c3df5" clip-rule="evenodd"/></clipPath><clipPath id="s"><path d="M29.521-8.205h3.3c0-.066,0-.131,0-.2V-9.846H1.641v1.641h27.88Z" fill="#0c3df5" clip-rule="evenodd"/></clipPath><clipPath id="u"><path d="M32.821-8.205h.829a.821.821,0,0,0,0-1.641h-.828V-8.4c0,.065,0,.131,0,.2" fill="#0c3df5" clip-rule="evenodd"/></clipPath><clipPath id="w"><path d="M.8-9.846a.821.821,0,0,0,0,1.641h.845V-9.846Z" fill="#0c3df5" clip-rule="evenodd"/></clipPath><clipPath id="y"><path d="M22.245-5.744H12.217c-.972,0-.972,1.641,0,1.641H22.245c.972,0,.972-1.641,0-1.641" fill="#0c3df5" clip-rule="evenodd"/></clipPath></defs><g transform="translate(0 63.883)"><g clip-path="url(#a)"><g clip-path="url(#b)"><path d="M27.821-68.179H38.641v10.821H27.821Z" fill="#0c3df5"/></g></g><g clip-path="url(#c)"><g clip-path="url(#b)"><path d="M-4.179-6.641H6.641V4.179H-4.179Z" fill="#0c3df5"/></g></g><g clip-path="url(#e)"><g clip-path="url(#b)"><path d="M-4.179-68.179H6.641v10.821H-4.179Z" fill="#0c3df5"/></g></g><g clip-path="url(#g)"><g clip-path="url(#b)"><path d="M27.821-6.641H39.462V5H27.821Z" fill="#0c3df5"/></g></g><g clip-path="url(#i)"><g style="isolation:isolate"><g clip-path="url(#j)"><g clip-path="url(#k)"><g clip-path="url(#l)"><path d="M-5-68.883H39.361V5H-5Z" fill="#0c3df5"/></g></g></g></g></g><g clip-path="url(#m)"><g clip-path="url(#b)"><path d="M-3.359-62.436H37.821v11.641H-3.359Z" fill="#0c3df5"/></g></g><g clip-path="url(#o)"><g clip-path="url(#b)"><path d="M-5-62.436H6.641v11.641H-5Z" fill="#0c3df5"/></g></g><g clip-path="url(#q)"><g clip-path="url(#b)"><path d="M27.821-62.436H39.462v11.641H27.821Z" fill="#0c3df5"/></g></g><g clip-path="url(#s)"><g clip-path="url(#b)"><path d="M-3.359-14.846H37.821V-3.205H-3.359Z" fill="#0c3df5"/></g></g><g clip-path="url(#u)"><g clip-path="url(#b)"><path d="M27.821-14.846H39.462V-3.205H27.821Z" fill="#0c3df5"/></g></g><g clip-path="url(#w)"><g clip-path="url(#b)"><path d="M-5-14.846H6.641V-3.205H-5Z" fill="#0c3df5"/></g></g><g clip-path="url(#y)"><g clip-path="url(#b)"><path d="M6.487-10.744H27.974V.9H6.487Z" fill="#0c3df5"/></g></g></g></svg>