<svg version="1.1" id="Layer_1" xmlns="http://www.w3.org/2000/svg" xmlns:xlink="http://www.w3.org/1999/xlink" x="0px" y="0px"
	 viewBox="0 0 24 24" style="enable-background:new 0 0 24 24;" xml:space="preserve">
<g id="Bag">
	<g>
		<path d="M20.3,7.1c0-0.4-0.3-0.6-0.7-0.6h-3.4V5.1C16.1,2.8,14.3,1,12,1S7.9,2.8,7.9,5.1v1.4H4.4c-0.4,0-0.7,0.3-0.7,0.6L2.4,22.3
			c0,0.2,0,0.4,0.2,0.5C2.7,22.9,2.9,23,3,23H21c0.2,0,0.4-0.1,0.5-0.2c0.1-0.1,0.2-0.3,0.2-0.5L20.3,7.1z M9.2,5.1
			c0-1.5,1.2-2.8,2.8-2.8s2.8,1.2,2.8,2.8v1.4H9.2V5.1z M3.8,21.6L5.1,7.9h2.8v1.6c-0.4,0.2-0.7,0.7-0.7,1.2c0,0.8,0.6,1.4,1.4,1.4
			c0.8,0,1.4-0.6,1.4-1.4c0-0.5-0.3-0.9-0.7-1.2V7.9h5.5v1.6c-0.4,0.2-0.7,0.7-0.7,1.2c0,0.8,0.6,1.4,1.4,1.4c0.8,0,1.4-0.6,1.4-1.4
			c0-0.5-0.3-0.9-0.7-1.2V7.9h2.8l1.3,13.8H3.8z"/>
	</g>
</g>
</svg>
